<?xml version="1.0" encoding="UTF-8" standalone="no"?>
<!-- Uploaded to: SVG Repo, www.svgrepo.com, Generator: SVG Repo Mixer Tools -->

<svg
   height="800px"
   width="800px"
   version="1.1"
   id="Layer_1"
   viewBox="0 0 512 512"
   xml:space="preserve"
   sodipodi:docname="sun-svgrepo-com copy.svg"
   inkscape:version="1.3.2 (091e20e, 2023-11-25)"
   xmlns:inkscape="http://www.inkscape.org/namespaces/inkscape"
   xmlns:sodipodi="http://sodipodi.sourceforge.net/DTD/sodipodi-0.dtd"
   xmlns="http://www.w3.org/2000/svg"
   xmlns:svg="http://www.w3.org/2000/svg"><defs
   id="defs17" /><sodipodi:namedview
   id="namedview17"
   pagecolor="#ffffff"
   bordercolor="#000000"
   borderopacity="0.25"
   inkscape:showpageshadow="2"
   inkscape:pageopacity="0.0"
   inkscape:pagecheckerboard="0"
   inkscape:deskcolor="#d1d1d1"
   inkscape:zoom="0.295"
   inkscape:cx="398.30508"
   inkscape:cy="400"
   inkscape:window-width="1312"
   inkscape:window-height="449"
   inkscape:window-x="0"
   inkscape:window-y="38"
   inkscape:window-maximized="0"
   inkscape:current-layer="Layer_1" />
<path
   style="fill:#E18C36;"
   d="M244.983,6.36l-59.672,103.356h141.377L267.016,6.36C262.12-2.12,249.88-2.12,244.983,6.36z"
   id="path1" />
<path
   style="fill:#EC8560;"
   d="M71.689,87.268l30.888,115.278l99.969-99.969L87.268,71.689  C77.809,69.154,69.154,77.809,71.689,87.268z"
   id="path2" />
<path
   style="fill:#E18C36;"
   d="M6.36,267.016l103.356,59.672V185.311L6.36,244.983C-2.12,249.88-2.12,262.12,6.36,267.016z"
   id="path3" />
<path
   style="fill:#EC8560;"
   d="M87.268,440.311l115.278-30.888l-99.969-99.969L71.689,424.732  C69.154,434.191,77.809,442.846,87.268,440.311z"
   id="path4" />
<path
   style="fill:#E18C36;"
   d="M267.016,505.639l59.672-103.356H185.311l59.672,103.356  C249.88,514.12,262.12,514.12,267.016,505.639z"
   id="path5" />
<path
   style="fill:#EC8560;"
   d="M440.311,424.732l-30.888-115.278l-99.969,99.969l115.278,30.888  C434.191,442.846,442.846,434.191,440.311,424.732z"
   id="path6" />
<path
   style="fill:#E18C36;"
   d="M505.639,244.983l-103.356-59.672v141.377l103.356-59.672  C514.12,262.12,514.12,249.88,505.639,244.983z"
   id="path7" />
<path
   style="fill:#EC8560;"
   d="M424.732,71.689l-115.278,30.888l99.969,99.969l30.888-115.278  C442.846,77.809,434.191,69.154,424.732,71.689z"
   id="path8" />
<path
   style="opacity:0.1;enable-background:new    ;"
   d="M96.734,180.74l5.843,21.806l92.581-92.581  C154.252,120.695,119.394,146.34,96.734,180.74z"
   id="path9" />
<path
   style="opacity:0.1;enable-background:new    ;"
   d="M86.379,198.785c-11.181,22.602-17.475,48.053-17.475,74.977  c0,10.591,0.982,20.952,2.842,31.005l37.97,21.922V185.311L86.379,198.785z"
   id="path10" />
<path
   style="opacity:0.1;enable-background:new    ;"
   d="M102.577,309.454l-12.443,46.439  c15.382,27.679,38.294,50.591,65.973,65.973l46.439-12.443L102.577,309.454z"
   id="path11" />
<path
   style="opacity:0.1;enable-background:new    ;"
   d="M185.311,402.283l21.922,37.97c10.052,1.86,20.414,2.842,31.005,2.842  c26.924,0,52.375-6.294,74.977-17.475l13.473-23.336H185.311V402.283z"
   id="path12" />
<path
   style="opacity:0.1;enable-background:new    ;"
   d="M309.454,409.423l21.805,5.843c34.399-22.659,60.046-57.517,70.775-98.423  L309.454,409.423z"
   id="path13" />
<circle
   style="fill:#F7D64C;"
   cx="255.999"
   cy="255.999"
   r="169.332"
   id="circle13" />

<path
   style="opacity:0.3;fill:#FFFFFF;enable-background:new    ;"
   d="M288.526,89.8c-5.151,10.192-8.071,21.704-8.071,33.903  c0,41.581,33.709,75.289,75.289,75.289c19.728,0,37.674-7.596,51.099-20.012C383.549,133.448,340.24,99.862,288.526,89.8z"
   id="path17" />
</svg>
