<?xml version="1.0" encoding="UTF-8" standalone="no"?>
<!-- Uploaded to: SVG Repo, www.svgrepo.com, Generator: SVG Repo Mixer Tools -->

<svg
   height="800px"
   width="800px"
   version="1.1"
   id="Layer_1"
   viewBox="0 0 512 512"
   xml:space="preserve"
   sodipodi:docname="full-moon-moon-svgrepo-com.svg"
   inkscape:version="1.3.2 (091e20e, 2023-11-25)"
   xmlns:inkscape="http://www.inkscape.org/namespaces/inkscape"
   xmlns:sodipodi="http://sodipodi.sourceforge.net/DTD/sodipodi-0.dtd"
   xmlns="http://www.w3.org/2000/svg"
   xmlns:svg="http://www.w3.org/2000/svg"><defs
   id="defs6" /><sodipodi:namedview
   id="namedview6"
   pagecolor="#ffffff"
   bordercolor="#000000"
   borderopacity="0.25"
   inkscape:showpageshadow="2"
   inkscape:pageopacity="0.0"
   inkscape:pagecheckerboard="0"
   inkscape:deskcolor="#d1d1d1"
   inkscape:zoom="0.295"
   inkscape:cx="398.30508"
   inkscape:cy="400"
   inkscape:window-width="1312"
   inkscape:window-height="449"
   inkscape:window-x="0"
   inkscape:window-y="38"
   inkscape:window-maximized="0"
   inkscape:current-layer="Layer_1" />
<circle
   style="fill:#F2E7BF;"
   cx="256"
   cy="256"
   r="256"
   id="circle1" />
<path
   style="opacity:0.05;enable-background:new    ;"
   d="M182.538,10.717C118.85,29.764,65.581,72.925,33.334,129.616  c13.079,5.602,27.479,8.708,42.607,8.708c59.818,0,108.311-48.493,108.311-108.311C184.254,23.427,183.665,16.979,182.538,10.717z"
   id="path1" />
<circle
   style="opacity:0.05;enable-background:new    ;"
   cx="358.584"
   cy="364.417"
   r="56.16"
   id="circle2" />
<circle
   style="opacity:0.05;enable-background:new    ;"
   cx="158.459"
   cy="344.528"
   r="100.83"
   id="circle3" />
<path
   style="opacity:0.05;enable-background:new    ;"
   d="M280.692,487.308c-141.384,0-256-114.614-256-256  c0-64.408,23.793-123.255,63.06-168.248C33.98,109.99,0,179.023,0,256c0,141.384,114.616,256,256,256  c76.977,0,146.01-33.98,192.94-87.752C403.947,463.515,345.1,487.308,280.692,487.308z"
   id="path3" />

</svg>
